<?xml version="1.0" encoding="utf-8"?>
<!-- Generator: Adobe Illustrator 16.0.0, SVG Export Plug-In . SVG Version: 6.00 Build 0)  -->
<!DOCTYPE svg PUBLIC "-//W3C//DTD SVG 1.1//EN" "http://www.w3.org/Graphics/SVG/1.1/DTD/svg11.dtd">
<svg version="1.1" xmlns="http://www.w3.org/2000/svg" xmlns:xlink="http://www.w3.org/1999/xlink" x="0px" y="0px" width="600px"
	 height="600px" viewBox="0 0 600 600" enable-background="new 0 0 600 600" xml:space="preserve">
<g id="Layer_1" display="none">
	<g id="_x35_qRsQ7_1_" display="inline">
		<image overflow="visible" width="600" height="600" id="_x35_qRsQ7_2_" xlink:href="38DF1C36BD9CFD5C.jpg" >
		</image>
	</g>
</g>
<g id="Layer_3">
	<path d="M525,0H75C33.579,0,0,33.579,0,75v450c0,41.422,33.579,75,75,75h450c41.422,0,75-33.578,75-75V75
		C600,33.579,566.422,0,525,0z M585.794,514.112c0,39.418-31.953,71.371-71.371,71.371H86.198
		c-39.417,0-71.371-31.953-71.371-71.371V85.888c0-39.417,31.954-71.371,71.371-71.371h428.225
		c39.418,0,71.371,31.954,71.371,71.371V514.112z"/>
</g>
<g id="Layer_2">
	<path d="M453.759,144.379c0,0-7.585-51.035-154.138-52.414c-146.552-1.379-154.138,52.414-154.138,52.414l-19.311,140V463h29.655
		v37.241c0,0,2.068,17.241,24.138,16.552s24.138-17.931,24.138-17.931V463h192.414v36.552c0,0,4.827,19.351,24.827,17.262
		s24.138-14.503,24.138-14.503V463h27.587V281.621L453.759,144.379z M218.586,118.862h164.828c0,0,7.586,0.72,7.586,15.188
		s-9.655,15.188-9.655,15.188L300,149.207h-82.104c0,0-8.276,1.379-8.276-14.483S218.586,118.862,218.586,118.862z M179.965,409.896
		c-14.854,0-26.896-12.042-26.896-26.896s12.042-26.896,26.896-26.896s26.896,12.042,26.896,26.896S194.82,409.896,179.965,409.896z
		 M167.552,300c-8.276,0.448-13.104-12.172-13.104-12.172s15.862-106.207,17.931-113.104s8.276-8.276,8.276-8.276
		s232.414,0,238.62,0s9.655,8.965,9.655,8.965s15.173,104.138,15.173,111.724S432.379,300,432.379,300H299.621
		C299.621,300,175.828,299.552,167.552,300z M417.896,409.896C403.042,409.896,391,397.854,391,383s12.042-26.896,26.896-26.896
		c14.855,0,26.896,12.042,26.896,26.896S432.752,409.896,417.896,409.896z"/>
</g>
</svg>
